<svg xmlns="http://www.w3.org/2000/svg" width="550pt" height="500pt"><path d="M352.844-.406c-290.77 0-526.75 235.98-526.75 526.75s235.98 526.75 526.75 526.75c264.922 0 484.3-195.915 521.218-450.656h-41.156c-36.57 232.162-237.676 409.906-480.062 409.906-268.282 0-486-217.75-486-486.031 0-268.283 217.718-486.032 486-486.032 241.511 0 442.005 176.505 479.625 407.438h41.25C835.724 194.202 616.892-.406 352.844-.406z" transform="translate(107.44 5.986) scale(.58187)" style="fill:#23498c;fill-opacity:1;fill-rule:evenodd;stroke:none"/><path d="M605.753 238.38v36.038h.073c16.403 0 31.921 13.518 31.921 30.17 0 16.653-15.518 30.23-31.921 30.23h-.073v35.98c.05 0 .088.038.137.038 36.7 0 68.715-29.696 68.715-66.248 0-36.55-32.006-66.208-68.706-66.208h-.146z" transform="translate(6.25 6.713)" style="fill:#23498c;fill-opacity:1;fill-rule:evenodd;stroke:none"/><path transform="translate(104.496 7.706) scale(.58187)" style="fill:#23498c;fill-opacity:1;fill-rule:evenodd;stroke:none" d="M31.67 407.954h845.026v61.995H31.67zM667.239 573.706h209.457v61.901H667.239zM215.938 489.531c-37.2 0-67.407 30.207-67.407 67.406v.25c12.822-21.177 38.036-35.593 67.031-35.593 29.538 0 55.102 14.984 67.688 36.812.01-.494.063-.972.063-1.468 0-37.2-30.176-67.407-67.375-67.407zM495.227 487.804c-37.2 0-67.407 30.207-67.407 67.406v.25c12.822-21.177 38.036-35.593 67.032-35.593 29.537 0 55.101 14.984 67.687 36.812.01-.494.063-.972.063-1.469 0-37.2-30.175-67.406-67.375-67.406zM88.25 573.719c19.879 122.855 130.932 217 264.844 217s244.996-94.145 264.875-217H88.25zm85.406 59.687h358.875c-34.457 58.468-101.856 98.281-179.437 98.282-77.582 0-144.988-39.813-179.438-98.282z"/><path d="M354.25 141.031c-192.414 0-351.457 143.298-376.438 328.906H41.75c24.452-150.527 155.1-265.593 312.5-265.593s288.048 115.066 312.5 265.594h63.906C705.68 284.328 546.664 141.03 354.25 141.03zM-25.313 504.875c-.224 5.356-.406 10.714-.406 16.125 0 209.738 170.23 379.969 379.969 379.969 191.844 0 350.524-142.443 376.219-327.25h-64.032C641.295 723.429 511.07 837.656 354.25 837.656 179.456 837.656 37.594 695.794 37.594 521c0-5.41.137-10.781.406-16.125h-63.313z" transform="translate(104.496 7.706) scale(.58187)" style="fill:#23498c;fill-opacity:1;fill-rule:evenodd;stroke:none"/><path d="m337.509 127.83-7.39 15.827 51.984-.058-7.623-15.762-36.971-.008z" transform="translate(104.496 7.706) scale(.58187)" style="fill:#23498c;fill-opacity:1;fill-rule:evenodd;stroke:none"/><g style="fill:#23498c;fill-opacity:1"><path d="m781.284 718.45-54.592-23.13 6.015-14.196 54.592 23.13-6.015 14.196M755.276 760.453l-6.692-3.713-1.937 3.49-6.725-3.731 1.937-3.49-22.735-12.616c-2.797-1.552-4.432-2.278-4.906-2.178-.487.12-1.316 1.238-2.489 3.352l-6.852-3.803 2.896-5.22c1.635-2.945 2.919-4.983 3.853-6.112a7.896 7.896 0 0 1 3.545-2.389c1.43-.463 2.775-.498 4.037-.105 1.283.405 4.038 1.78 8.265 4.126l21.582 11.976 1.546-2.786 6.725 3.731-1.546 2.786 6.692 3.714-7.196 12.968M742.435 789.108l-11.06-7.44c.264 1.707.23 3.332-.101 4.874-.346 1.563-.988 3.043-1.929 4.44-1.444 2.148-3.218 3.603-5.32 4.366-2.116.783-4.002.853-5.658.21-1.65-.61-4.369-2.189-8.157-4.737l-27.801-18.705 8.258-12.275 28.38 19.093c2.35 1.58 3.94 2.474 4.772 2.681.818.227 1.5-.065 2.045-.875.504-.75.5-1.488-.01-2.214-.512-.727-1.791-1.779-3.837-3.155l-28.774-19.359 8.259-12.275 49.192 33.096-8.259 12.275M679.785 825.093l-9.132-7.632c-3.354-2.802-5.676-5.03-6.968-6.681-1.273-1.637-2.132-3.58-2.576-5.827-.425-2.233-.238-4.494.563-6.784.803-2.256 2.144-4.508 4.023-6.756 2.097-2.51 4.146-4.41 6.145-5.698 2.018-1.273 3.987-1.934 5.906-1.985 1.923-.016 3.843.427 5.76 1.33 1.938.919 4.49 2.701 7.655 5.347l9.554 7.984c3.466 2.896 5.86 5.533 7.182 7.91 1.322 2.378 1.76 5.034 1.312 7.969-.448 2.934-1.94 5.919-4.476 8.954-2.13 2.548-4.337 4.41-6.624 5.585-2.284 1.21-4.45 1.802-6.497 1.777-2.047-.025-3.866-.399-5.456-1.123-1.606-.706-3.73-2.162-6.37-4.37m12.296-9.004c1.911 1.597 3.196 2.496 3.856 2.697.678.216 1.298-.013 1.862-.687.564-.675.686-1.336.369-1.983-.3-.632-1.405-1.746-3.316-3.343l-16.832-14.066c-1.761-1.472-3.007-2.322-3.738-2.551-.713-.214-1.343.008-1.89.663-.564.674-.689 1.318-.374 1.931.3.632 1.255 1.621 2.866 2.967l17.197 14.372M659.213 869.74l-33.86-34.858 10.796-10.487 2.623 3.068c-.404-1.888-.353-3.657.155-5.307.507-1.616 1.46-3.104 2.861-4.465 1.594-1.548 3.188-2.552 4.784-3.012 1.595-.46 3.097-.473 4.506-.038a11.591 11.591 0 0 1 3.726 1.996c1.11.897 3.119 2.843 6.028 5.837l22.836 23.51-10.612 10.309-23.041-23.72c-2.637-2.715-4.28-4.25-4.931-4.604-.669-.338-1.37-.15-2.106.565-.788.765-.997 1.479-.627 2.14.353.679 1.915 2.445 4.688 5.3l22.786 23.457-10.612 10.309M622.795 899.38l-23.205-29.365c-3.133-3.965-5.066-6.608-5.797-7.927-.736-1.286-1.056-3.01-.959-5.17.082-2.181.854-4.394 2.316-6.638 1.429-2.25 3.646-4.562 6.654-6.938 3.697-2.921 7.165-4.635 10.405-5.142 3.226-.526 6.33 1.02 9.312 4.637l-11.263 8.9c-1.332-1.685-2.611-2.044-3.837-1.075-.881.696-1.261 1.416-1.14 2.16.122.745.833 1.94 2.135 3.588l2.27 2.873c.285-1.687.801-3.2 1.549-4.537a11.21 11.21 0 0 1 2.903-3.414c2.088-1.65 4.145-2.591 6.171-2.823 2.007-.217 3.797.158 5.37 1.125 1.587.985 3.38 2.742 5.378 5.27l10.944 13.85c2.86 3.62 4.268 6.74 4.222 9.36-.046 2.619-1.4 4.98-4.063 7.084-1.456 1.15-3.012 1.898-4.67 2.243-1.675.36-3.452.317-5.329-.13l1.437 3.532-10.803 8.537m3.644-19.31c1.378 1.744 2.361 2.772 2.95 3.084.57.328 1.2.219 1.89-.326.67-.53.93-1.186.778-1.968-.156-.749-.87-1.927-2.14-3.536l-10.127-12.815c-1.347-1.705-2.33-2.733-2.95-3.084-.604-.331-1.242-.232-1.912.298-.766.605-1.022 1.305-.768 2.1.255.794 1.237 2.274 2.948 4.439l9.331 11.809M604.057 924.807l-7.127-11.265c-.446 1.67-1.132 3.143-2.056 4.422-.945 1.291-2.13 2.387-3.553 3.288-2.187 1.384-4.396 2.001-6.628 1.853-2.252-.135-4.007-.83-5.264-2.086-1.264-1.223-3.117-3.763-5.558-7.62l-17.916-28.317 12.502-7.91 18.288 28.904c1.515 2.393 2.61 3.852 3.29 4.376.657.537 1.398.545 2.224.022.763-.483 1.057-1.16.881-2.03-.175-.872-.922-2.35-2.24-4.433l-18.544-29.307 12.503-7.91 31.7 50.102-12.502 7.911M559.298 945.456l-3.53-6.791-3.542 1.84-3.546-6.823 3.542-1.84-11.99-23.072c-1.475-2.838-2.438-4.346-2.889-4.525-.472-.167-1.78.306-3.925 1.421l-3.614-6.954 5.297-2.753c2.99-1.553 5.185-2.543 6.587-2.969a7.896 7.896 0 0 1 4.275-.034c1.447.403 2.589 1.117 3.424 2.141.846 1.046 2.384 3.714 4.613 8.003l11.382 21.902 2.827-1.47 3.546 6.824-2.827 1.47 3.53 6.79-13.16 6.84M478.85 970.858l-10.615-47.788 15.16-5.351c2.804 5.302 6.36 12.332 10.667 21.09a186.203 186.203 0 0 1-2.736-12.705l-1.956-10.494 15.16-5.35L526.609 954l-12.018 4.242c-.514-1.164-4.61-9.544-12.29-25.138.447 1.707 2.495 10.81 6.144 27.308l-11.57 4.083-12.082-25.211c2.26 7.798 4.285 16.908 6.074 27.332l-12.017 4.242M455.597 987.3l-2.953-12.999c-.979 1.424-2.117 2.584-3.416 3.48-1.322.902-2.805 1.539-4.447 1.912-2.524.574-4.812.418-6.866-.467-2.078-.88-3.5-2.122-4.264-3.726-.784-1.575-1.681-4.588-2.693-9.04l-7.424-32.675 14.427-3.278 7.579 33.354c.627 2.761 1.173 4.502 1.637 5.223.44.726 1.137.981 2.09.765.88-.2 1.383-.74 1.509-1.62.125-.88-.085-2.522-.631-4.927l-7.685-33.818 14.428-3.278 13.137 57.816-14.428 3.278M406.122 966.3l13.774-1.704.4 3.235c.462 3.731.393 6.655-.206 8.77-.62 2.144-2.13 4.151-4.532 6.023-2.4 1.871-5.672 3.063-9.815 3.576-4.967.614-8.82.193-11.559-1.264-2.736-1.433-4.517-3.402-5.343-5.907-.824-2.481-1.729-7.707-2.715-15.679l-2.995-24.205 14.283-1.767.531 4.289c.684-1.832 1.686-3.272 3.008-4.32 1.3-1.023 2.932-1.655 4.894-1.898 2.569-.318 5.02.105 7.353 1.267 2.312 1.19 3.769 4.22 4.372 9.09l.49 3.962c.446 3.61.181 6.14-.796 7.59-.977 1.448-3.61 3.324-7.901 5.626-4.588 2.487-7.011 4.078-7.27 4.774-.258.696-.262 2.05-.014 4.06.312 2.52.708 4.132 1.189 4.835.46.73 1.125 1.042 1.997.934.994-.123 1.571-.526 1.733-1.21.164-.66.08-2.335-.253-5.025l-.625-5.051m-5.47-6.04c2.137-2.01 3.328-3.622 3.571-4.833.22-1.208.195-2.902-.075-5.082-.309-2.496-.666-4.088-1.07-4.776-.43-.685-1.129-.967-2.098-.847-.92.114-1.48.466-1.678 1.056-.218.617-.178 2.138.122 4.56l1.228 9.923M359.489 995.252l-.286-7.649-3.989.15-.287-7.686 3.99-.149-.97-25.983c-.12-3.196-.345-4.97-.676-5.325-.355-.353-1.74-.485-4.156-.394l-.292-7.832 5.965-.223c3.367-.125 5.775-.08 7.224.134a7.896 7.896 0 0 1 3.879 1.797c1.136.984 1.862 2.117 2.179 3.4.317 1.308.566 4.377.747 9.207l.92 24.666 3.184-.12.287 7.686-3.184.119.286 7.648-14.821.554M307.897 997.803l4.206-59.14 15.378 1.094-4.205 59.14-15.379-1.094M296.67 977.43l.685 10.161-1.127 9.012-11.12-1.391 1.128-9.012 2.912-9.71 7.522.94M239.103 986.823l11.783-58.107 14.5 2.94-.699 3.446c1.679-1.155 3.357-1.935 5.034-2.343a11.428 11.428 0 0 1 5.027-.101c2.25.456 4.08 1.438 5.494 2.945 1.408 1.531 2.194 3.123 2.357 4.775.14 1.647-.147 4.23-.86 7.747l-4.52 22.288c-.742 3.661-1.496 6.211-2.261 7.65-.79 1.434-2.138 2.556-4.046 3.365-1.912.833-4.029 1.014-6.35.543-1.795-.364-3.368-1.02-4.72-1.966-1.377-.952-2.544-2.197-3.503-3.737l-2.736 13.495-14.5-2.94m19.056-19.527c-.354 1.746-.436 2.95-.247 3.611.166.657.692 1.075 1.577 1.254.861.175 1.503.019 1.926-.469.394-.468.78-1.635 1.158-3.501l4.731-23.33c.393-1.937.51-3.246.348-3.927-.166-.656-.655-1.067-1.469-1.232-.933-.189-1.623.02-2.07.627-.452.63-.947 2.274-1.486 4.93l-4.468 22.037M172.186 965.392l20.243-55.726 13.906 5.051-1.2 3.305c1.83-.894 3.606-1.418 5.324-1.573 1.719-.155 3.381.06 4.988.643 2.157.784 3.823 2.025 4.998 3.725 1.166 1.722 1.708 3.413 1.625 5.071-.106 1.65-.771 4.162-1.997 7.535l-7.765 21.375c-1.275 3.51-2.397 5.921-3.367 7.231-.992 1.302-2.492 2.212-4.498 2.73-2.015.541-4.135.407-6.361-.401-1.721-.626-3.18-1.506-4.378-2.643-1.22-1.145-2.191-2.549-2.911-4.213l-4.702 12.942-13.905-5.052m21.733-16.495c-.609 1.675-.868 2.853-.778 3.535.067.674.525 1.165 1.374 1.474.826.3 1.484.24 1.974-.18.459-.404 1.013-1.502 1.663-3.291l8.128-22.374c.675-1.858.983-3.136.925-3.833-.067-.673-.49-1.152-1.27-1.435-.896-.325-1.61-.22-2.14.313-.54.557-1.274 2.11-2.199 4.657l-7.677 21.134M140.547 920.153l5.164-10.723c1.897-3.938 3.488-6.735 4.773-8.392 1.276-1.635 2.949-2.943 5.02-3.923 2.06-.959 4.299-1.33 6.715-1.115 2.384.226 4.896.975 7.535 2.247 2.948 1.42 5.29 2.94 7.029 4.564 1.728 1.645 2.851 3.391 3.37 5.24.486 1.86.526 3.83.12 5.911-.416 2.103-1.52 5.013-3.31 8.73l-5.403 11.218c-1.96 4.07-3.93 7.036-5.912 8.9-1.981 1.864-4.45 2.938-7.405 3.222-2.955.284-6.214-.432-9.777-2.149-2.992-1.44-5.337-3.125-7.036-5.055-1.732-1.918-2.837-3.872-3.314-5.863-.477-1.992-.56-3.847-.246-5.566.291-1.73 1.183-4.145 2.677-7.246m11.74 9.719c-1.08 2.243-1.637 3.71-1.67 4.398-.044.71.33 1.256 1.121 1.637.792.382 1.463.34 2.013-.128.54-.444 1.35-1.789 2.43-4.032l9.518-19.764c.996-2.067 1.515-3.484 1.559-4.249.032-.743-.336-1.3-1.106-1.67-.792-.382-1.447-.345-1.964.11-.54.446-1.265 1.614-2.176 3.505l-9.724 20.193M64.21 891.407l32.604-36.515 13.195 9.185c-2.668 5.372-6.3 12.362-10.896 20.973a186.208 186.208 0 0 1 8.717-9.638l7.378-7.715 13.195 9.185-22.626 43.462-10.459-7.281c.645-1.098 5.057-9.316 13.236-24.654-1.125 1.36-7.32 8.336-18.586 20.93l-10.068-7.01 13.416-24.528c-5.012 6.388-11.227 13.35-18.646 20.887l-10.46-7.28M58.048 861.034l10.4 9.19-2.157 2.443c-2.49 2.817-4.726 4.702-6.708 5.655-2.017.955-4.521 1.153-7.513.594-2.992-.56-6.053-2.221-9.181-4.985-3.75-3.315-5.987-6.48-6.71-9.497-.738-2.998-.443-5.637.887-7.916 1.313-2.26 4.629-6.4 9.948-12.419l16.15-18.276 10.785 9.53-2.862 3.238c1.825-.7 3.568-.903 5.23-.608 1.626.297 3.18 1.1 4.662 2.41 1.94 1.714 3.247 3.83 3.92 6.348.64 2.52-.664 5.619-3.913 9.296l-2.643 2.991c-2.41 2.726-4.48 4.203-6.213 4.431-1.733.228-4.883-.503-9.45-2.192-4.9-1.79-7.698-2.552-8.39-2.284-.693.268-1.71 1.16-3.052 2.68-1.682 1.902-2.626 3.266-2.835 4.092-.243.828-.035 1.533.624 2.115.75.662 1.435.828 2.054.495.603-.314 1.802-1.486 3.597-3.517l3.37-3.814m.901-8.098c2.922.269 4.918.094 5.987-.526 1.05-.635 2.303-1.777 3.758-3.423 1.665-1.884 2.621-3.206 2.868-3.965.229-.775-.022-1.486-.754-2.133-.695-.614-1.33-.8-1.903-.557-.607.245-1.72 1.282-3.336 3.112l-6.62 7.492M12.044 819.935l8.926 9.603-1.932 1.795c-1.645 1.53-2.59 2.592-2.837 3.188-.28.594-.072 1.267.626 2.018.565.608 1.195.872 1.889.794.676-.062 1.416-.466 2.22-1.214 1.091-1.014 1.83-1.834 2.215-2.459.351-.626.482-1.597.392-2.914-.107-1.334-.676-3.721-1.708-7.162-1.387-4.577-1.859-7.988-1.414-10.235.445-2.247 1.964-4.575 4.557-6.985 2.897-2.693 5.436-4.354 7.619-4.982 2.164-.612 4.471-.407 6.922.615 2.415 1.022 4.778 2.775 7.089 5.26 2.56 2.754 4.324 5.514 5.294 8.279.954 2.747 1.038 5.168.253 7.264s-2.661 4.524-5.63 7.283l-1.716 1.596-8.926-9.603 2.253-2.094c1.913-1.779 3.048-3.05 3.404-3.814.34-.783.177-1.531-.488-2.247-.714-.769-1.4-1.13-2.059-1.086-.676.062-1.63.666-2.865 1.813-1.699 1.58-2.58 2.765-2.643 3.557-.047.81.636 4.092 2.05 9.844 1.17 4.845 1.356 8.29.555 10.334-.818 2.06-2.228 4.02-4.231 5.883-2.843 2.642-5.285 4.212-7.324 4.707-2.057.512-4.283.215-6.679-.892-2.411-1.124-4.723-2.876-6.933-5.254-2.194-2.36-3.752-4.646-4.673-6.856-.956-2.212-1.35-4.213-1.18-6.003.152-1.808.566-3.193 1.24-4.153.657-.978 1.88-2.298 3.669-3.96l2.065-1.92M16.032 790.757l4.127-3.342c2.163-1.751 4.145-2.931 5.945-3.54 1.8-.61 3.698-.67 5.695-.182 1.982.469 3.779 1.37 5.392 2.702l-3.302 2.673c-1.567-.616-2.952-.562-4.157.162l1.567 1.935-9.022 7.305-6.245-7.713M-49.188 781.276.28 748.591l8.5 12.863-49.467 32.686-8.5-12.864M-39.858 759.988l-7.638 6.737-7.83 4.6-5.676-9.662 7.831-4.6 9.474-3.611 3.839 6.536M-82.018 720.993l53.17-26.236 6.546 13.268-3.153 1.556c1.94.621 3.584 1.47 4.933 2.548a11.428 11.428 0 0 1 3.156 3.914c1.016 2.058 1.36 4.107 1.032 6.147-.349 2.051-1.127 3.647-2.334 4.787-1.218 1.118-3.436 2.471-6.654 4.06l-20.394 10.062c-3.35 1.653-5.828 2.617-7.435 2.893-1.617.253-3.33-.127-5.136-1.141-1.83-1.003-3.268-2.567-4.316-4.69-.81-1.643-1.254-3.288-1.333-4.937-.09-1.671.181-3.357.813-5.057l-12.348 6.093-6.547-13.267m27.105 3.123c-1.598.789-2.6 1.46-3.008 2.015-.418.533-.427 1.204-.027 2.014.39.789.906 1.2 1.55 1.237.61.025 1.77-.384 3.478-1.226l21.347-10.533c1.773-.875 2.88-1.585 3.319-2.128.418-.533.443-1.172.076-1.916-.422-.854-1.009-1.272-1.763-1.254-.775.029-2.378.642-4.808 1.842l-20.164 9.95M-89.945 670.157l4.156-1.072c-2.054-.722-3.732-1.707-5.033-2.955-1.3-1.248-2.24-2.766-2.817-4.555-.705-2.184-.72-4.257-.045-6.22.644-1.977 1.67-3.411 3.075-4.301 1.406-.89 3.944-1.928 7.615-3.113l19.482-6.288c4.205-1.358 7.285-2.07 9.239-2.136 1.923-.082 3.67.483 5.241 1.694 1.54 1.196 2.664 2.886 3.369 5.07.562 1.743.677 3.489.343 5.238-.333 1.75-1.102 3.499-2.308 5.248l10.595-3.42 4.545 14.08-52.834 17.054-4.623-14.324m12.158-8.35c-2.857.922-4.555 1.586-5.091 1.99-.537.404-.651 1.082-.344 2.035.3.93.844 1.42 1.63 1.475.78.03 2.506-.386 5.178-1.248l19.168-6.188c2.788-.9 4.485-1.601 5.092-2.105.607-.504.76-1.22.46-2.15-.292-.906-.786-1.362-1.48-1.369-.726-.022-2.32.364-4.783 1.159l-19.83 6.401M-102.338 624.583l6.344-.838c-4.927-1.086-7.973-3.587-9.136-7.504l16.679-3.781c.599 2.643 1.396 4.502 2.39 5.578.996 1.077 2.169 1.612 3.52 1.606 1.326 0 4.287-.521 8.882-1.563l18.715-4.243 3.27 14.429-47.393 10.744-3.27-14.428M-86.037 568.328l2.578 18.978 10.415-1.414c2.177-.296 3.559-.644 4.145-1.044.586-.4.819-1.047.697-1.942-.151-1.113-.663-1.795-1.534-2.046-.9-.272-2.547-.246-4.942.08l-6.35.862-1.888-13.898 3.556-.483c2.976-.404 5.288-.521 6.938-.351 1.645.146 3.47.785 5.471 1.918 2.002 1.132 3.607 2.7 4.815 4.704 1.181 1.984 1.989 4.572 2.422 7.765.42 3.097.345 5.891-.228 8.384-.573 2.492-1.544 4.509-2.911 6.05-1.395 1.52-2.99 2.66-4.783 3.42-1.818.765-4.518 1.39-8.098 1.877l-14.043 1.907c-4.21.572-7.601.454-10.175-.355-2.598-.805-4.714-2.414-6.347-4.829-1.658-2.41-2.716-5.298-3.172-8.66-.559-4.113-.233-7.607.978-10.481 1.184-2.896 2.997-5.052 5.441-6.468 2.417-1.437 5.96-2.472 10.629-3.107l6.386-.867m-5.842 15.761-3.52.478c-2.491.339-4.082.69-4.772 1.055-.69.365-.978.958-.866 1.78.138 1.017.538 1.603 1.2 1.76.637.16 2.31.055 5.02-.313l3.52-.478-.582-4.282M-119.091 543.76l7.644-.394-.206-3.987 7.68-.396.206 3.987 25.966-1.34c3.194-.164 4.966-.414 5.315-.75.348-.36.46-1.747.336-4.161l7.826-.404.308 5.961c.173 3.365.163 5.774-.031 7.226a7.896 7.896 0 0 1-1.742 3.904c-.968 1.15-2.09 1.892-3.369 2.227-1.303.336-4.368.628-9.196.877l-24.65 1.271.165 3.182-7.68.396-.165-3.182-7.643.395-.764-14.812M-86.895 494.905l-.649 19.142 10.504.356c2.196.075 3.617-.036 4.262-.331.645-.296.983-.895 1.014-1.798.038-1.122-.352-1.88-1.169-2.275-.84-.42-2.469-.67-4.884-.752l-6.405-.217.475-14.018 3.587.122c3.001.102 5.3.375 6.897.82 1.598.42 3.289 1.357 5.072 2.81 1.782 1.453 3.101 3.269 3.955 5.448.831 2.153 1.192 4.84 1.083 8.06-.106 3.124-.651 5.866-1.635 8.227-.984 2.36-2.28 4.185-3.887 5.474-1.63 1.264-3.394 2.12-5.29 2.569-1.92.448-4.686.61-8.298.488l-14.164-.48c-4.245-.145-7.569-.831-9.97-2.061-2.425-1.23-4.24-3.173-5.445-5.828-1.229-2.655-1.786-5.679-1.671-9.07.14-4.148 1.05-7.537 2.727-10.168 1.653-2.655 3.803-4.475 6.45-5.46 2.624-1.01 6.29-1.436 11-1.276l6.441.218m-8.408 14.555-3.55-.12c-2.513-.085-4.14-.006-4.882.237-.74.244-1.125.78-1.153 1.61-.035 1.025.26 1.67.887 1.936.601.264 2.269.443 5.001.536l3.55.12.147-4.319M-108.855 465.91l4.39.863c-1.618-1.307-2.758-2.782-3.42-4.426-.681-1.671-.884-3.51-.607-5.518.346-2.515 1.222-4.49 2.626-5.923 1.405-1.433 3.046-2.254 4.924-2.464 1.853-.213 4.883-.03 9.092.55l33.739 4.645-2.018 14.656-33.34-4.59c-3.314-.456-5.348-.625-6.104-.507-.755.117-1.201.672-1.338 1.664-.143 1.04.19 1.75 1 2.134.786.379 2.993.818 6.62 1.318l32.543 4.48-2.018 14.657-48.142-6.629 2.053-14.91M-105.822 397.566l57.56 14.216-3.547 14.363-3.413-.843c1.082 1.726 1.792 3.435 2.128 5.128.337 1.693.3 3.368-.11 5.028-.55 2.227-1.608 4.016-3.173 5.364-1.589 1.343-3.212 2.061-4.87 2.155-1.652.07-4.22-.326-7.704-1.186l-22.078-5.453c-3.627-.895-6.143-1.756-7.549-2.58-1.4-.85-2.463-2.244-3.191-4.184-.752-1.946-.844-4.068-.276-6.368.439-1.777 1.16-3.322 2.163-4.633 1.009-1.335 2.302-2.45 3.88-3.342l-13.367-3.301 3.547-14.364m18.709 19.86c-1.73-.427-2.93-.56-3.598-.398-.663.138-1.103.645-1.32 1.522-.21.854-.081 1.502.388 1.944.451.414 1.601.849 3.45 1.305l23.11 5.708c1.919.474 3.222.645 3.909.512.663-.138 1.093-.61 1.292-1.416.229-.924.05-1.622-.538-2.094-.612-.478-2.233-1.042-4.864-1.692l-21.83-5.39M-89.218 349.933l55.334 21.294-5.538 14.389-55.333-21.295 5.537-14.388M-42.525 280.459l39.655 28.704-7.79 14.063c-5.616-2.105-12.94-5.004-21.975-8.697 3.527 2.4 7.02 4.963 10.478 7.687l8.427 6.552-7.79 14.064-45.544-18.068 6.175-11.148c1.158.53 9.783 4.079 25.876 10.648-1.467-.98-9.04-6.43-22.718-16.35l5.944-10.733 25.77 10.841c-6.866-4.333-14.427-9.805-22.682-16.415l6.174-11.148M-12.957 271.23l-8.076 11.287-2.65-1.896c-3.059-2.187-5.163-4.218-6.314-6.092-1.156-1.908-1.61-4.38-1.361-7.413.25-3.034 1.588-6.248 4.017-9.644 2.912-4.07 5.832-6.62 8.758-7.647 2.907-1.043 5.562-1.02 7.965.07 2.384 1.074 6.842 3.948 13.374 8.621l19.837 14.19-8.374 11.706-3.515-2.514c.884 1.743 1.265 3.456 1.142 5.139-.13 1.649-.769 3.277-1.92 4.886-1.505 2.104-3.476 3.621-5.912 4.55-2.441.896-5.657-.084-9.649-2.94l-3.246-2.322c-2.959-2.117-4.64-4.025-5.045-5.725-.404-1.7 0-4.909 1.212-9.625 1.278-5.06 1.748-7.92 1.411-8.581-.337-.662-1.33-1.582-2.978-2.761-2.065-1.477-3.519-2.277-4.362-2.4-.848-.157-1.528.122-2.04.837-.582.814-.676 1.512-.282 2.095.374.567 1.663 1.64 3.867 3.216l4.14 2.962m8.149.066c.032 2.934.41 4.901 1.136 5.9.74.98 2.004 2.11 3.79 3.388 2.046 1.463 3.459 2.279 4.24 2.447.794.148 1.475-.175 2.043-.97.54-.754.66-1.404.36-1.949-.307-.58-1.453-1.579-3.438-3l-8.131-5.816M23.21 221.256l-8.639 9.862-1.983-1.737c-1.69-1.48-2.843-2.312-3.461-2.496-.62-.219-1.268.057-1.943.829-.547.624-.746 1.278-.597 1.96.13.666.609 1.36 1.435 2.085 1.12.981 2.011 1.631 2.672 1.951.66.285 1.639.316 2.939.091 1.316-.243 3.633-1.053 6.95-2.432 4.41-1.849 7.756-2.667 10.036-2.454 2.28.212 4.753 1.485 7.416 3.817 2.975 2.606 4.887 4.963 5.735 7.07.83 2.09.863 4.406.096 6.948-.768 2.507-2.27 5.037-4.506 7.59-2.478 2.828-5.042 4.866-7.693 6.114-2.635 1.23-5.035 1.562-7.2.996-2.166-.566-4.773-2.185-7.821-4.855l-1.764-1.544 8.639-9.862 2.314 2.027c1.965 1.72 3.346 2.72 4.143 2.996.813.257 1.54.019 2.184-.716.692-.79.982-1.51.87-2.16-.131-.666-.83-1.554-2.097-2.664-1.745-1.528-3.014-2.283-3.81-2.265-.81.036-4.004 1.052-9.581 3.047-4.7 1.66-8.108 2.197-10.223 1.61-2.133-.602-4.228-1.805-6.285-3.606-2.92-2.558-4.73-4.826-5.432-6.804-.72-1.993-.653-4.238.203-6.735.872-2.514 2.377-4.992 4.517-7.435 2.123-2.424 4.237-4.207 6.342-5.35 2.102-1.177 4.052-1.773 5.85-1.788 1.815-.034 3.234.236 4.258.808 1.04.554 2.478 1.635 4.315 3.244l2.12 1.858M71.749 178.553l7.754 9.029c2.848 3.315 4.773 5.894 5.776 7.736.987 1.823 1.514 3.88 1.583 6.17.053 2.273-.504 4.472-1.67 6.6-1.162 2.093-2.855 4.094-5.078 6.003-2.481 2.132-4.814 3.669-6.998 4.61-2.2.925-4.25 1.254-6.152.988-1.899-.3-3.72-1.053-5.464-2.258-1.76-1.225-3.983-3.402-6.671-6.532l-8.113-9.445c-2.943-3.426-4.871-6.42-5.785-8.983-.913-2.562-.908-5.254.016-8.075.924-2.821 2.886-5.52 5.886-8.097 2.519-2.164 5.003-3.637 7.451-4.421 2.452-.818 4.685-1.047 6.7-.686 2.016.36 3.749 1.029 5.198 2.004 1.468.96 3.324 2.746 5.567 5.357m-13.61 6.862c-1.622-1.89-2.742-2.987-3.36-3.293-.633-.326-1.283-.202-1.95.37-.666.574-.896 1.205-.689 1.896.192.673 1.099 1.954 2.721 3.843l14.293 16.64c1.495 1.741 2.585 2.785 3.268 3.13.668.328 1.326.214 1.974-.343.667-.573.895-1.187.685-1.844-.191-.672-.97-1.805-2.339-3.397L58.14 185.415M84.234 148.366l2.332 3.82c-.131-2.077.185-3.915.95-5.513.77-1.632 1.988-3.025 3.654-4.178 2.088-1.446 4.135-2.135 6.14-2.069 2.006.067 3.72.72 5.144 1.962 1.41 1.221 3.324 3.578 5.742 7.07l19.387 28.002-12.164 8.422-19.158-27.67c-1.903-2.75-3.154-4.364-3.752-4.84-.597-.478-1.308-.432-2.13.138-.864.598-1.162 1.324-.897 2.18.252.835 1.42 2.758 3.505 5.769l18.698 27.008-12.164 8.422-27.662-39.955 12.375-8.568M153.27 136.094l-16.782 9.23 5.066 9.21c1.06 1.925 1.88 3.089 2.465 3.492.584.403 1.271.387 2.063-.048.984-.541 1.436-1.264 1.357-2.168-.07-.937-.687-2.464-1.852-4.582l-3.088-5.615 12.289-6.76 1.73 3.145c1.447 2.63 2.388 4.746 2.822 6.346.456 1.589.515 3.52.179 5.795-.337 2.276-1.223 4.337-2.659 6.186-1.425 1.815-3.55 3.499-6.374 5.052-2.738 1.506-5.372 2.44-7.904 2.802-2.532.362-4.763.182-6.692-.54-1.92-.755-3.558-1.833-4.913-3.233-1.367-1.421-2.921-3.715-4.663-6.88l-6.83-12.418c-2.048-3.723-3.157-6.93-3.329-9.622-.183-2.713.558-5.267 2.224-7.66 1.653-2.413 3.966-4.438 6.94-6.074 3.636-2 7.014-2.953 10.131-2.856 3.128.063 5.792.98 7.992 2.75 2.21 1.739 4.45 4.672 6.721 8.8l3.107 5.648m-16.808.217-1.712-3.112c-1.212-2.203-2.112-3.561-2.7-4.074-.589-.512-1.246-.568-1.974-.168-.898.494-1.301 1.078-1.21 1.752.081.653.78 2.177 2.098 4.573l1.712 3.112 3.786-2.083M209.608 104.086l4.161 11.15c1.528 4.095 2.445 7.18 2.75 9.255.297 2.052.082 4.165-.644 6.338-.735 2.15-2.017 4.023-3.845 5.617-1.814 1.563-4.094 2.857-6.839 3.881-3.065 1.144-5.784 1.781-8.16 1.912-2.383.108-4.42-.291-6.114-1.197-1.678-.937-3.128-2.272-4.348-4.006-1.229-1.756-2.565-4.567-4.007-8.433l-4.354-11.665c-1.579-4.232-2.355-7.708-2.328-10.428.027-2.72.962-5.245 2.803-7.573 1.84-2.33 4.614-4.185 8.32-5.568 3.11-1.16 5.95-1.686 8.518-1.577 2.583.079 4.758.635 6.526 1.67 1.767 1.034 3.162 2.26 4.186 3.675 1.046 1.408 2.171 3.724 3.375 6.95m-15.142 1.741c-.87-2.333-1.543-3.75-2.016-4.25-.482-.524-1.135-.633-1.958-.325-.824.307-1.258.82-1.302 1.54-.052.698.357 2.213 1.228 4.546l7.67 20.551c.802 2.15 1.464 3.506 1.986 4.067.514.538 1.17.658 1.971.359.824-.308 1.25-.805 1.28-1.494.052-.697-.288-2.03-1.023-3.996l-7.836-20.998M231.02 69.066l2.044 7.224c-2.936.831-4.635 1.464-5.095 1.899-.444.405-.486 1.241-.127 2.51l.419 1.48 5.99-1.696 2.095 7.4-3.383.957 10.823 38.232-14.236 4.03-10.823-38.232-2.924.828-2.095-7.4 2.925-.828c-.871-3.077-1.347-5.162-1.429-6.256-.08-1.093.177-2.156.773-3.187.613-1.062 1.611-2.017 2.995-2.865 1.383-.849 3.66-1.722 6.832-2.62l5.215-1.476M276.894 63.91l1.299 7.544 3.933-.678 1.305 7.58-3.934.677 4.41 25.624c.542 3.152 1.001 4.881 1.376 5.188.399.303 1.79.25 4.171-.16l1.33 7.723-5.883 1.013c-3.32.571-5.713.847-7.178.826a7.896 7.896 0 0 1-4.083-1.267c-1.256-.824-2.127-1.85-2.611-3.08-.488-1.254-1.142-4.263-1.962-9.027l-4.187-24.325-3.14.54-1.304-7.579 3.14-.54-1.298-7.543 14.616-2.515M306.79 56.009l1.145 13.28c1.164-1.276 2.45-2.27 3.86-2.979 1.433-.711 2.989-1.14 4.667-1.284 2.579-.223 4.824.245 6.738 1.404 1.937 1.156 3.175 2.58 3.713 4.274.56 1.667 1.037 4.775 1.429 9.323l2.878 33.385-14.74 1.27-2.938-34.077c-.244-2.821-.546-4.621-.907-5.399-.337-.78-.991-1.127-1.964-1.043-.9.078-1.473.543-1.718 1.398-.245.854-.261 2.51-.05 4.966l2.98 34.552-14.74 1.271-5.094-59.07 14.74-1.271M374.114 82.205l-.21 11.9c-.077 4.37-.353 7.576-.829 9.618-.475 2.019-1.448 3.906-2.92 5.663-1.471 1.732-3.35 3.005-5.634 3.82-2.26.79-4.856 1.159-7.785 1.107-3.27-.058-6.035-.46-8.293-1.208-2.257-.773-4.008-1.89-5.252-3.353-1.219-1.486-2.079-3.26-2.58-5.32-.5-2.084-.714-5.189-.64-9.314l.219-12.45c.08-4.515.63-8.034 1.651-10.555 1.021-2.522 2.815-4.529 5.38-6.022 2.566-1.493 5.827-2.205 9.781-2.135 3.32.059 6.155.61 8.505 1.652 2.375 1.018 4.195 2.332 5.461 3.942 1.266 1.61 2.116 3.26 2.55 4.953.458 1.693.657 4.26.596 7.702m-14.728-3.923c.044-2.49-.062-4.054-.32-4.693-.257-.664-.824-1.004-1.703-1.02-.879-.015-1.47.304-1.775.958-.304.63-.478 2.19-.522 4.68l-.387 21.932c-.04 2.294.08 3.798.36 4.511.28.689.848 1.04 1.703 1.056.878.015 1.457-.292 1.737-.922.304-.63.475-1.994.512-4.093l.395-22.409M416.118 85.085l-13.021-1.527.307-2.618c.262-2.231.293-3.653.095-4.266-.172-.635-.767-1.012-1.785-1.132-.824-.096-1.475.11-1.953.62-.475.485-.776 1.273-.904 2.364-.174 1.479-.205 2.582-.093 3.307.139.705.669 1.53 1.59 2.473.946.947 2.927 2.396 5.943 4.347 4.023 2.586 6.594 4.879 7.711 6.878 1.118 1.999 1.47 4.757 1.058 8.272-.46 3.929-1.318 6.84-2.572 8.732-1.252 1.87-3.142 3.209-5.67 4.018-2.502.789-5.438.985-8.808.59-3.735-.438-6.867-1.395-9.398-2.872-2.506-1.474-4.14-3.263-4.901-5.368-.761-2.105-.906-5.17-.434-9.195l.273-2.328 13.021 1.527-.358 3.055c-.304 2.595-.344 4.298-.12 5.111.249.816.858 1.28 1.828 1.395 1.042.122 1.8-.047 2.272-.508.474-.485.81-1.565 1.006-3.238.27-2.303.173-3.777-.293-4.422-.489-.647-3.136-2.703-7.941-6.167-4.032-2.93-6.406-5.434-7.121-7.509-.712-2.099-.91-4.506-.591-7.222.452-3.856 1.294-6.633 2.526-8.332 1.234-1.723 3.122-2.94 5.663-3.65 2.566-.707 5.461-.871 8.686-.493 3.201.375 5.868 1.106 8.003 2.192 2.16 1.064 3.757 2.333 4.79 3.806 1.055 1.476 1.637 2.798 1.746 3.966.133 1.171.058 2.969-.227 5.394l-.328 2.8M458.807 103.613l-18.71-4.098-2.249 10.267c-.47 2.146-.618 3.563-.443 4.251.174.688.702 1.13 1.584 1.322 1.097.24 1.914-.006 2.449-.738.564-.751 1.105-2.307 1.622-4.668l1.372-6.26 13.7 3-.767 3.507c-.643 2.933-1.327 5.145-2.054 6.635-.702 1.496-1.929 2.99-3.68 4.48-1.751 1.49-3.776 2.46-6.073 2.906-2.268.428-4.976.297-8.124-.392-3.052-.669-5.65-1.7-7.795-3.095-2.143-1.394-3.704-2.998-4.681-4.812-.949-1.832-1.472-3.721-1.57-5.667-.094-1.97.246-4.72 1.02-8.25l3.032-13.844c.909-4.15 2.185-7.294 3.828-9.433 1.649-2.163 3.887-3.597 6.716-4.302 2.834-.73 5.908-.73 9.223-.004 4.054.888 7.223 2.394 9.507 4.519 2.313 2.106 3.715 4.55 4.205 7.332.52 2.763.275 6.446-.733 11.048l-1.38 6.296m-12.795-10.9.76-3.47c.538-2.456.755-4.071.65-4.844-.107-.773-.565-1.248-1.376-1.426-1.001-.22-1.69-.045-2.064.523-.369.544-.846 2.151-1.43 4.822l-.761 3.47 4.221.925M531.455 90.407l-20.913 55.48-13.844-5.219 1.24-3.29c-1.841.872-3.622 1.374-5.343 1.509-1.72.134-3.38-.1-4.98-.703-2.147-.81-3.797-2.071-4.952-3.785-1.146-1.736-1.667-3.433-1.564-5.09.125-1.648.821-4.152 2.087-7.51l8.021-21.28c1.318-3.495 2.47-5.892 3.454-7.19 1.008-1.29 2.519-2.182 4.531-2.676 2.021-.517 4.14-.358 6.356.478 1.713.646 3.162 1.544 4.346 2.694 1.206 1.16 2.16 2.576 2.86 4.249l4.856-12.885 13.845 5.218m-21.93 16.234c.628-1.668.902-2.844.82-3.527-.059-.674-.511-1.17-1.356-1.49-.823-.31-1.481-.257-1.976.156-.464.4-1.032 1.49-1.703 3.272l-8.396 22.274c-.698 1.85-1.021 3.124-.971 3.821.059.675.477 1.158 1.253 1.451.891.336 1.606.24 2.144-.288.547-.55 1.298-2.093 2.254-4.63l7.93-21.04M559.736 143.704l-17.138-8.552-4.693 9.404c-.981 1.966-1.472 3.304-1.471 4.013 0 .71.405 1.267 1.213 1.67 1.005.501 1.857.463 2.555-.117.731-.59 1.636-1.966 2.716-4.129l2.861-5.734 12.55 6.263-1.602 3.211c-1.341 2.687-2.546 4.664-3.615 5.932-1.048 1.278-2.603 2.426-4.665 3.442-2.063 1.017-4.263 1.461-6.6 1.332-2.303-.14-4.897-.93-7.78-2.369-2.797-1.395-5.064-3.031-6.8-4.908-1.738-1.877-2.859-3.814-3.363-5.812-.47-2.008-.516-3.968-.135-5.879.392-1.933 1.394-4.516 3.008-7.749l6.328-12.68c1.897-3.802 3.904-6.538 6.021-8.21 2.128-1.694 4.65-2.537 7.565-2.528 2.926-.013 5.907.738 8.943 2.253 3.714 1.854 6.418 4.09 8.112 6.71 1.727 2.607 2.488 5.32 2.283 8.137-.173 2.806-1.311 6.317-3.415 10.533l-2.878 5.767m-9.739-13.7 1.586-3.179c1.123-2.25 1.728-3.762 1.815-4.538.087-.775-.241-1.348-.984-1.719-.918-.457-1.627-.457-2.13.002-.49.437-1.346 1.88-2.567 4.326l-1.586 3.178 3.866 1.93M583.915 150.882l-11.728-7.422 1.743-2.754c2.01-3.177 3.919-5.393 5.725-6.649 1.84-1.263 4.28-1.856 7.323-1.779 3.043.077 6.328 1.232 9.856 3.464 4.23 2.677 6.94 5.447 8.132 8.31 1.206 2.844 1.333 5.496.382 7.957-.938 2.44-3.554 7.054-7.85 13.841l-13.043 20.609-12.161-7.697 2.31-3.651c-1.69.981-3.378 1.458-5.065 1.43-1.654-.035-3.316-.581-4.987-1.639-2.187-1.384-3.813-3.265-4.879-5.644-1.032-2.387-.236-5.654 2.389-9.8l2.135-3.373c1.945-3.074 3.755-4.861 5.43-5.361 1.674-.5 4.9-.28 9.677.664 5.124.989 8.006 1.297 8.648.922.641-.374 1.504-1.417 2.587-3.13 1.358-2.145 2.074-3.642 2.15-4.49.107-.856-.21-1.52-.952-1.99-.846-.535-1.548-.589-2.107-.163-.546.406-1.544 1.754-2.993 4.044l-2.722 4.301m.396 8.139c-2.928.198-4.87.688-5.827 1.47-.936.794-1.992 2.12-3.167 3.976-1.345 2.125-2.079 3.581-2.202 4.37-.103.802.258 1.464 1.083 1.986.784.496 1.44.579 1.967.248.56-.339 1.494-1.54 2.8-3.602l5.346-8.448M642.329 155.801l-4.52 5.995c-2.436-1.837-3.967-2.807-4.592-2.911-.59-.109-1.282.363-2.076 1.416l-.926 1.228 4.972 3.747-4.63 6.142-2.807-2.117-23.917 31.73-11.815-8.906 23.918-31.73-2.428-1.829 4.63-6.141 2.427 1.83c1.925-2.554 3.299-4.194 4.12-4.92.823-.725 1.825-1.162 3.007-1.31 1.216-.154 2.58.064 4.092.654 1.513.59 3.585 1.876 6.217 3.86l4.328 3.262M644.977 197.107l-6.657 7.75-14.752-12.668 6.657-7.752 14.752 12.67M677.917 201.967l-3.541 2.97c2.12-.416 4.053-.354 5.797.185 1.762.523 3.336 1.524 4.723 3.002 2.705 2.885 3.499 6.408 2.38 10.57 2.188-.345 4.146-.256 5.873.265 1.746.505 3.27 1.453 4.573 2.842 1.72 1.834 2.694 3.765 2.923 5.793.245 2.046-.124 3.848-1.106 5.405-.965 1.541-2.9 3.673-5.802 6.395l-25.19 23.623-9.82-10.471 23.107-21.67c3.027-2.838 4.797-4.699 5.309-5.58.546-.881.469-1.695-.233-2.443-.718-.766-1.542-.93-2.471-.494-.913.454-2.892 2.11-5.937 4.965l-23.106 21.67-9.82-10.472 22.518-21.118c3.473-3.257 5.473-5.3 6-6.13.545-.81.458-1.6-.26-2.365-.451-.481-1.023-.715-1.714-.703-.673-.004-1.294.226-1.861.692-.55.448-1.68 1.474-3.39 3.078l-24.575 23.047-9.82-10.472 35.447-33.242 9.996 10.658M732.092 267.894l-39.266 28.631-8.868-12.161 3.406-2.167c-1.925.136-3.67-.164-5.232-.898-1.529-.728-2.868-1.882-4.019-3.46-1.309-1.795-2.08-3.515-2.31-5.159-.233-1.644-.034-3.133.594-4.467a11.592 11.592 0 0 1 2.5-3.41c1.043-.971 3.252-2.687 6.625-5.147l26.483-19.31 8.717 11.954-26.72 19.483c-3.058 2.23-4.808 3.642-5.25 4.236-.429.615-.34 1.336.263 2.165.648.887 1.325 1.194 2.032.92.72-.253 2.69-1.553 5.905-3.897l26.424-19.267 8.716 11.954M752.89 289.23l-6.542 3.972 2.072 3.412-6.574 3.99-2.072-3.411-22.226 13.493c-2.733 1.66-4.175 2.72-4.323 3.181-.136.483.424 1.757 1.678 3.823l-6.699 4.067-3.098-5.103c-1.748-2.88-2.881-5.005-3.4-6.376a7.896 7.896 0 0 1-.317-4.262c.307-1.472.943-2.658 1.91-3.559.988-.914 3.548-2.625 7.68-5.133l21.098-12.81-1.653-2.723 6.574-3.99 1.653 2.723 6.543-3.972 7.697 12.678M747.907 347.86l-8.508-17.16-9.416 4.668c-1.969.976-3.167 1.747-3.595 2.313-.428.567-.44 1.255-.04 2.064.5 1.006 1.202 1.489 2.108 1.448.94-.03 2.492-.58 4.657-1.655l5.742-2.846 6.23 12.566-3.215 1.594c-2.69 1.334-4.845 2.184-6.462 2.55-1.606.387-3.539.364-5.797-.07-2.259-.433-4.281-1.406-6.066-2.919-1.753-1.501-3.345-3.696-4.777-6.583-1.388-2.8-2.209-5.472-2.462-8.017-.253-2.545.022-4.766.825-6.663.836-1.886 1.983-3.476 3.44-4.77 1.477-1.306 3.835-2.76 7.073-4.366l12.697-6.295c3.806-1.887 7.058-2.858 9.755-2.915 2.718-.067 5.238.782 7.557 2.548 2.342 1.755 4.266 4.152 5.774 7.193 1.843 3.718 2.65 7.133 2.422 10.244-.197 3.122-1.226 5.744-3.09 7.867-1.83 2.134-4.856 4.247-9.078 6.34l-5.774 2.863m.499-16.801 3.182-1.578c2.253-1.117 3.648-1.959 4.185-2.525.537-.566.621-1.22.252-1.964-.455-.919-1.021-1.347-1.699-1.283-.655.052-2.207.686-4.657 1.9l-3.183 1.578 1.92 3.872M771.745 382.24l-4.667-12.252 2.464-.938c2.099-.8 3.374-1.43 3.826-1.889.484-.445.543-1.147.178-2.105-.295-.776-.78-1.258-1.452-1.446-.65-.196-1.488-.1-2.514.292-1.392.53-2.384 1.012-2.976 1.447-.56.448-1.046 1.3-1.457 2.553-.402 1.277-.771 3.703-1.107 7.28-.433 4.763-1.277 8.102-2.533 10.017-1.256 1.915-3.538 3.503-6.846 4.763-3.696 1.408-6.674 1.993-8.932 1.756-2.236-.246-4.297-1.302-6.184-3.17-1.856-1.853-3.388-4.366-4.596-7.537-1.338-3.514-1.937-6.734-1.798-9.66.148-2.904.979-5.18 2.494-6.828 1.514-1.648 4.165-3.194 7.952-4.636l2.19-.835 4.667 12.252-2.875 1.095c-2.44.93-3.97 1.682-4.587 2.257-.608.597-.739 1.352-.391 2.265.373.981.874 1.574 1.5 1.78.65.196 1.762-.005 3.336-.605 2.168-.825 3.43-1.593 3.786-2.304.348-.733.947-4.03 1.797-9.893.734-4.93 1.856-8.192 3.365-9.786 1.532-1.602 3.576-2.89 6.131-3.863 3.628-1.382 6.48-1.92 8.556-1.613 2.098.298 4.05 1.41 5.855 3.334 1.813 1.948 3.297 4.44 4.453 7.474 1.147 3.012 1.732 5.715 1.756 8.11.055 2.408-.331 4.41-1.16 6.006-.82 1.619-1.724 2.746-2.709 3.383-.977.66-2.606 1.423-4.887 2.292l-2.635 1.004" style="font-size:75px;font-style:normal;font-variant:normal;font-weight:400;font-stretch:condensed;writing-mode:lr-tb;text-anchor:start;stroke:none;font-family:Impact" transform="translate(107.44 5.986) scale(.58187)"/></g></svg>